<?xml version="1.0" encoding="UTF-8"?>
<svg version="1.1" xmlns="http://www.w3.org/2000/svg" width="512" height="512">
<path d="M0 0 C0.82138946 -0.00623996 1.64277892 -0.01247993 2.48905897 -0.01890898 C5.24531609 -0.03488198 8.00069411 -0.0222181 10.75695801 -0.00964355 C12.73133359 -0.01506276 14.70570512 -0.02218429 16.68006897 -0.03088379 C22.04573258 -0.04914395 27.4110891 -0.04203844 32.77675819 -0.02936745 C38.38698796 -0.01925376 43.9971911 -0.02862859 49.60742188 -0.03491211 C59.02954844 -0.04219326 68.45154968 -0.03258849 77.87365723 -0.0135498 C88.77326168 0.00821977 99.67256686 0.00116874 110.57216406 -0.02085543 C119.92342364 -0.03899605 129.27459302 -0.04157428 138.62586451 -0.03110075 C144.21400007 -0.02485848 149.80199489 -0.02405038 155.39012146 -0.0372467 C160.64329504 -0.04878508 165.89608206 -0.04081619 171.14921379 -0.01766968 C173.07937413 -0.01237183 175.0095669 -0.01391467 176.93971443 -0.02272034 C179.5703591 -0.03361704 182.19975747 -0.01998397 184.83032227 0 C185.59802303 -0.00892289 186.36572379 -0.01784577 187.15668821 -0.02703905 C190.66533823 0.02482544 192.55227234 0.22467928 195.35796356 2.41468048 C197.99968762 5.96580321 198.38634647 8.06752489 197.91516113 12.50793457 C196.60590474 15.41427112 194.90164373 18.02768019 193.16516113 20.69543457 C192.42350708 21.87021362 192.42350708 21.87021362 191.66687012 23.06872559 C190.62045755 24.72333768 189.56815625 26.37423844 188.51037598 28.02160645 C186.97146771 30.42017422 185.44994318 32.82874226 183.93469238 35.24230957 C181.44395698 39.20712844 178.93984231 43.16326668 176.43127441 47.11682129 C173.92028952 51.07698008 171.41810801 55.04269257 168.91516113 59.00793457 C165.95225242 63.7005673 162.98857303 68.3927027 160.02062988 73.08215332 C154.45844414 81.87399531 148.92465651 90.68296593 143.41516113 99.50793457 C135.89524673 111.55314094 128.31850861 123.56164072 120.71594238 135.55480957 C118.19568488 139.53129268 115.68747863 143.51519174 113.18371582 147.5020752 C112.0798489 149.24752759 110.95622673 150.98045556 109.82922363 152.71105957 C105.93164457 158.61653895 105.93164457 158.61653895 105.91516113 165.50793457 C108.35931931 168.76118577 111.28103375 169.4724673 115.09436035 170.60168457 C115.71876983 170.78947951 116.3431793 170.97727446 116.98651028 171.17076015 C119.06166683 171.79236373 121.14060992 172.40013872 123.21984863 173.00793457 C124.68601359 173.44403707 126.15192613 173.88098901 127.61759949 174.31874084 C130.72769641 175.24566626 133.83949574 176.16654141 136.95278931 177.08267212 C141.78314567 178.50423253 146.6090422 179.94052564 151.43444824 181.37878418 C164.81498797 185.36294868 178.20524492 189.31241843 191.61437988 193.19934082 C194.14291437 193.9361791 196.67129006 194.67356008 199.199646 195.41101074 C201.42038963 196.05385602 203.64471619 196.68286669 205.86975098 197.31066895 C207.17800664 197.68970822 208.48612346 198.06922723 209.79406738 198.44934082 C210.87244873 198.75557373 211.95083008 199.06180664 213.06188965 199.37731934 C216.85446303 200.88013506 220.0522395 202.78209131 221.91516113 206.50793457 C222.71201929 210.89065441 222.75972929 213.18699669 220.32922363 216.98840332 C218.3859531 219.36312201 216.39099348 221.67181402 214.32727051 223.94250488 C212.32439634 226.16284188 210.38833526 228.43807425 208.4473877 230.71252441 C206.91052183 232.51337075 205.36602379 234.30748213 203.82141113 236.10168457 C201.30747456 239.03461057 198.84984785 242.00868282 196.41516113 245.00793457 C192.02570296 250.41156359 187.49833305 255.68831912 182.95812988 260.96496582 C178.70164189 265.91352173 174.49349107 270.90271997 170.28283691 275.89025879 C168.89056696 277.53702436 167.49510641 279.18103524 166.09875488 280.82434082 C161.8666248 285.80819705 157.65778715 290.80352729 153.54016113 295.88293457 C149.3735969 301.00526981 145.05314832 305.98210835 140.71472168 310.95837402 C136.79266574 315.46733414 132.98484249 320.05491521 129.22375488 324.69934082 C125.9958676 328.6263306 122.67284691 332.46875516 119.35412598 336.31896973 C116.34258083 339.8204771 113.38449904 343.35588978 110.47766113 346.94543457 C106.33519734 352.050213 102.03397014 357.00416139 97.71447754 361.95861816 C93.7925401 366.46752783 89.98476999 371.05500474 86.22375488 375.69934082 C82.9958676 379.6263306 79.67284691 383.46875516 76.35412598 387.31896973 C73.34258083 390.8204771 70.38449904 394.35588978 67.47766113 397.94543457 C63.33519734 403.050213 59.03397014 408.00416139 54.71447754 412.95861816 C50.79014455 417.4702819 46.98082077 422.06127963 43.21594238 426.70715332 C39.53743726 431.18506193 35.74476457 435.56392752 31.96594238 439.95715332 C25.72088792 447.2182446 19.51884964 454.51346886 13.47766113 461.94543457 C9.06369884 467.36650413 4.51733308 472.66635431 -0.04187012 477.96496582 C-4.29089531 482.90484554 -8.49186027 487.88514566 -12.69519043 492.8638916 C-14.15373783 494.58944645 -15.61506059 496.31261897 -17.07702637 498.03527832 C-17.81650513 498.90720825 -17.81650513 498.90720825 -18.57092285 499.79675293 C-19.5074246 500.90086407 -20.44440149 502.00457246 -21.38195801 503.10778809 C-23.39342612 505.48090259 -25.33301822 507.84830813 -27.16687012 510.36340332 C-29.08483887 512.50793457 -29.08483887 512.50793457 -32.83483887 512.82043457 C-34.44358887 512.66574707 -34.44358887 512.66574707 -36.08483887 512.50793457 C-38.14485153 509.12160827 -38.15911634 506.86090834 -37.2557373 503.14701843 C-36.75156377 501.33975432 -36.22952929 499.53742157 -35.69421387 497.73913574 C-35.26444244 496.22578235 -35.26444244 496.22578235 -34.82598877 494.68185616 C-33.84384179 491.23791423 -32.83908818 487.80096004 -31.83483887 484.36340332 C-31.11528891 481.85667317 -30.39723998 479.34951176 -29.68054199 476.84196472 C-28.06786497 471.20726243 -26.44368218 465.57596895 -24.81335449 459.9463501 C-22.14207952 450.71975199 -19.49535547 441.48619286 -16.85253525 432.25140977 C-15.52504712 427.61282284 -14.19677233 422.97446118 -12.86853027 418.33609009 C-12.5995952 417.39689016 -12.33066013 416.45769023 -12.05357552 415.49002969 C-9.28822109 405.83356366 -6.51887104 396.17824515 -3.74847794 386.52322364 C-2.90378207 383.57933425 -2.05923357 380.63540261 -1.21469116 377.69146919 C1.66369275 367.65907135 4.54530891 357.62761331 7.4317627 347.59753418 C9.99847933 338.67838161 12.5595986 329.7576429 15.11423874 320.83502358 C16.45340079 316.15858029 17.79539621 311.48299353 19.14440918 306.80938148 C20.39898162 302.46288085 21.64621992 298.1143445 22.88778305 293.76411057 C23.3429742 292.17418739 23.80088392 290.58503961 24.26172256 288.99674416 C24.89004944 286.82971588 25.50851807 284.66010456 26.12463379 282.48957825 C26.47256989 281.27863149 26.82050598 280.06768473 27.1789856 278.82004261 C27.89560189 275.59593303 28.05875179 272.79738596 27.91516113 269.50793457 C20.11442363 266.22641281 12.17399853 263.55767194 4.11437988 260.98840332 C2.78881473 260.56282858 1.46336244 260.13690219 0.13801575 259.71064758 C-3.33643797 258.59405986 -6.81216846 257.4815048 -10.28826904 256.37005615 C-13.75556365 255.26098345 -17.22198602 254.14919476 -20.68835449 253.03723145 C-21.36533323 252.82015596 -22.04231197 252.60308048 -22.73980522 252.37942696 C-26.10008175 251.30149125 -29.45955356 250.22114234 -32.8175354 249.13607788 C-38.73812954 247.22338062 -44.66103212 245.32333211 -50.60583496 243.48693848 C-52.50905756 242.88607024 -54.41221992 242.28501117 -56.31530762 241.68371582 C-57.58474968 241.30451241 -57.58474968 241.30451241 -58.87983704 240.91764832 C-62.35820008 239.80270705 -64.77722404 238.75825293 -67.63293457 236.43444824 C-72.36131834 226.90373758 -67.20837723 214.94295578 -64.64343262 205.28137207 C-64.16717847 203.45137861 -63.692002 201.6211044 -63.21781921 199.79057312 C-61.93419702 194.84770579 -60.63566719 189.9088665 -59.33435822 184.97063065 C-57.96883332 179.77823485 -56.61717075 174.58223282 -55.26403809 169.38659668 C-53.01220563 160.7474677 -50.75209758 152.11054333 -48.48571777 143.47521973 C-45.47816445 132.01556406 -42.4847217 120.55227116 -39.4967289 109.08750153 C-36.31120501 96.86560796 -33.12310932 84.64438596 -29.9263916 72.42541504 C-29.70245381 71.56925598 -29.47851603 70.71309692 -29.24779224 69.83099365 C-28.15171282 65.64226716 -27.05330692 61.4541734 -25.95027161 57.26727295 C-23.94567541 49.65275593 -21.9575026 42.03526402 -20.0298481 34.40084553 C-19.13321662 30.85493009 -18.22640199 27.31165658 -17.31855392 23.76859856 C-16.8911159 22.0887312 -16.46862539 20.40759618 -16.05141068 18.7251606 C-15.47656837 16.40840606 -14.88489965 14.09655821 -14.28942871 11.78503418 C-14.12510723 11.10340399 -13.96078575 10.4217738 -13.79148483 9.71948814 C-11.65747266 1.60702406 -8.01675884 -0.09317775 0 0 Z " fill="#FED05A" transform="translate(212.0848388671875,-0.5079345703125)"/>
<path d="M0 0 C0.34375 2.1640625 0.34375 2.1640625 0 5 C-1.79280299 7.02586738 -3.45200934 8.65137107 -5.5 10.375 C-6.05026855 10.85759277 -6.60053711 11.34018555 -7.16748047 11.83740234 C-8.76799089 13.23743912 -10.38256417 14.61959318 -12 16 C-13.3760877 17.20709448 -14.75127493 18.41521743 -16.125 19.625 C-17.06085938 20.43710937 -17.06085938 20.43710937 -18.015625 21.265625 C-22.05373262 24.79499465 -26.01974189 28.40570631 -30 32 C-39.48872041 40.56860207 -39.48872041 40.56860207 -43.9375 44.4375 C-48.13303221 48.09057956 -52.23373553 51.84505549 -56.34375 55.59375 C-58.54352741 57.58648953 -60.75955218 59.5533814 -63 61.5 C-68.07631734 65.91418899 -73.05945144 70.43458195 -78 75 C-78.62261719 75.48984375 -79.24523437 75.9796875 -79.88671875 76.484375 C-81.22897567 77.99099201 -81.22897567 77.99099201 -80.9609375 80.265625 C-79.71293132 83.8168621 -77.76766425 86.69316479 -75.625 89.75 C-74.71626159 91.07861644 -73.80875724 92.4080776 -72.90234375 93.73828125 C-72.42780762 94.43131348 -71.95327148 95.1243457 -71.46435547 95.83837891 C-68.98268228 99.50172242 -66.58547042 103.21903952 -64.1875 106.9375 C-63.74422363 107.62231445 -63.30094727 108.30712891 -62.84423828 109.01269531 C-61.98727547 110.33946025 -61.13335162 111.66819379 -60.28271484 112.99902344 C-59.38555082 114.39855833 -58.47881116 115.79198005 -57.56494141 117.18066406 C-57.10651855 117.88803711 -56.6480957 118.59541016 -56.17578125 119.32421875 C-55.75852783 119.96061279 -55.34127441 120.59700684 -54.91137695 121.25268555 C-54 123 -54 123 -54 125.875 C-55 128 -55 128 -58 130 C-60.00013606 130.59067999 -62.0220075 131.1088245 -64.05200195 131.58691406 C-65.33158783 131.89148026 -66.61117371 132.19604645 -67.92953491 132.50984192 C-69.36576637 132.84517716 -70.80201586 133.18043513 -72.23828125 133.515625 C-73.77231703 133.87845052 -75.30621809 134.24184601 -76.83999634 134.60575867 C-80.20386713 135.40268553 -83.56861126 136.19578089 -86.93405151 136.98605347 C-92.38722897 138.26667675 -97.83843011 139.55557018 -103.28930664 140.84594727 C-109.32016493 142.27326764 -115.35114768 143.700051 -121.38273621 145.12428284 C-139.22099951 149.33704419 -157.0527486 153.57692333 -174.8828125 157.82421875 C-175.58567029 157.99163999 -176.28852808 158.15906123 -177.01268458 158.33155584 C-183.41039498 159.85550813 -189.80806158 161.37964419 -196.20566463 162.90404701 C-206.00383077 165.23872341 -215.80223086 167.57241534 -225.60083008 169.90527344 C-226.27170639 170.06499653 -226.94258269 170.22471963 -227.63378859 170.38928282 C-230.93520083 171.17528145 -234.23661738 171.96126204 -237.53803635 172.74723244 C-244.77766094 174.47076898 -244.77766094 174.47076898 -252.01713181 176.19495106 C-254.22804991 176.72110007 -256.43920687 177.24624656 -258.65062332 177.77029705 C-263.79779512 178.99120952 -268.93983151 180.22814127 -274.07351685 181.50466919 C-275.03019288 181.73996873 -275.98686892 181.97526827 -276.97253513 182.2176981 C-278.74219549 182.65367606 -280.5103581 183.09580541 -282.27654171 183.54566097 C-286.98922211 184.69991043 -291.14726936 185.21842245 -296 185 C-296 183.68 -296 182.36 -296 181 C-294.15527344 179.29125977 -294.15527344 179.29125977 -291.609375 177.62890625 C-290.69220703 177.02320801 -289.77503906 176.41750977 -288.83007812 175.79345703 C-287.89615234 175.20161621 -286.96222656 174.60977539 -286 174 C-284.7924707 173.23018799 -284.7924707 173.23018799 -283.56054688 172.44482422 C-281.13547158 170.92237119 -278.69537325 169.4271095 -276.25 167.9375 C-268.75127425 163.33267711 -261.29259179 158.67195196 -253.875 153.9375 C-252.95904053 153.35299072 -252.04308105 152.76848145 -251.09936523 152.16625977 C-249.27861433 151.00428113 -247.45789445 149.84225388 -245.63720703 148.68017578 C-241.53601256 146.0672874 -237.42505542 143.46995855 -233.3125 140.875 C-232.54019043 140.38765381 -231.76788086 139.90030762 -230.97216797 139.39819336 C-229.42373014 138.42128403 -227.87522781 137.44447695 -226.32666016 136.46777344 C-222.38339755 133.98016643 -218.44179232 131.48993586 -214.5 129 C-212.9166744 127.99998776 -211.33334107 126.99998775 -209.75 126 C-208.96625 125.505 -208.1825 125.01 -207.375 124.5 C-200.25 120 -200.25 120 -197.87109375 118.49755859 C-196.30075026 117.50574568 -194.73043734 116.51388436 -193.16015625 115.52197266 C-189.00333844 112.89629551 -184.84586549 110.27166296 -180.6875 107.6484375 C-179.81931641 107.10058594 -178.95113281 106.55273438 -178.05664062 105.98828125 C-176.38886668 104.93588914 -174.72090662 103.88379189 -173.05273438 102.83203125 C-172.30314453 102.35894531 -171.55355469 101.88585937 -170.78125 101.3984375 C-170.12189453 100.98255371 -169.46253906 100.56666992 -168.78320312 100.13818359 C-167.17580189 99.1122109 -165.58665658 98.05777105 -164 97 C-164.5480732 92.18782674 -165.95438432 88.73602992 -168.2734375 84.5 C-168.59784821 83.90123047 -168.92225891 83.30246094 -169.25650024 82.68554688 C-170.28791912 80.78582701 -171.33103562 78.89284939 -172.375 77 C-173.40909998 75.10576079 -174.4407686 73.21021366 -175.47207642 71.31445312 C-176.41028903 69.59293447 -177.35415518 67.87450048 -178.29833984 66.15625 C-178.8598877 65.1146875 -179.42143555 64.073125 -180 63 C-180.60924316 61.9790625 -181.21848633 60.958125 -181.84619141 59.90625 C-183 57 -183 57 -182.47935486 54.47375488 C-180.38358094 50.96923334 -178.35977008 50.66452545 -174.48413086 49.51367188 C-173.48587107 49.20858326 -173.48587107 49.20858326 -172.46744442 48.89733124 C-170.31690721 48.24547413 -168.15926151 47.62227491 -166 47 C-164.60719929 46.58370488 -163.21487153 46.16582402 -161.82302856 45.74633789 C-157.30862405 44.39446553 -152.78175888 43.0872274 -148.25390625 41.78125 C-146.5421771 41.28506446 -144.83052977 40.78859659 -143.11895752 40.29187012 C-139.48503403 39.23781515 -135.85059969 38.18554867 -132.21572876 37.13476562 C-126.50385963 35.48350258 -120.79319343 33.82810791 -115.08276367 32.171875 C-113.14064268 31.60863422 -111.19851926 31.04540183 -109.25639343 30.48217773 C-107.80700158 30.06184769 -107.80700158 30.06184769 -106.32832909 29.63302612 C-103.38135409 28.77856193 -100.43426356 27.92449736 -97.48713684 27.07055664 C-79.503032 21.85925965 -61.52545607 16.62569689 -43.55075073 11.38208008 C-39.62559558 10.23704228 -35.70019684 9.09284214 -31.77472496 7.94889069 C-28.86746964 7.1015425 -25.96036362 6.25368308 -23.05330658 5.40565491 C-21.71342984 5.014877 -20.37350089 4.62427809 -19.03351593 4.23387146 C-17.2172531 3.70463747 -15.40122253 3.1746066 -13.58520508 2.64453125 C-12.06567986 2.20137573 -12.06567986 2.20137573 -10.51545715 1.74926758 C-6.77405674 0.63483396 -3.92146388 -0.10598551 0 0 Z " fill="#FED05A" transform="translate(512,327)"/>
<path d="M0 0 C2.13671875 -0.01318359 2.13671875 -0.01318359 5 1 C7.28671932 3.50081982 9.01164618 6.34897441 10.8125 9.2109375 C11.65017662 10.50011581 11.65017662 10.50011581 12.504776 11.81533813 C13.71560506 13.68219802 14.91956662 15.55352585 16.11746216 17.42871094 C18.66026763 21.40835999 21.23628719 25.36607821 23.81080627 29.32525635 C25.1534916 31.39069888 26.4944793 33.4572459 27.83384705 35.52484131 C34.49978694 45.80744151 41.29891726 55.9981399 48.14868164 66.15899658 C50.03921725 68.96543748 51.92306739 71.7762856 53.80664062 74.58740234 C54.96570418 76.30856573 56.12518681 78.029447 57.28515625 79.75 C57.80682877 80.530336 58.32850128 81.310672 58.86598206 82.11465454 C61.32839049 85.75029333 63.7190706 89.03551037 67 92 C73.5808487 89.34748757 80.07354257 86.5492738 86.48828125 83.51953125 C87.12708221 83.21796112 87.76588318 82.91639099 88.42404175 82.60568237 C91.0558763 81.36040057 93.68592737 80.11145395 96.3137207 78.85766602 C98.26556048 77.92777444 100.22044395 77.00454075 102.17578125 76.08203125 C103.31958252 75.53780518 104.46338379 74.9935791 105.6418457 74.43286133 C109.11572023 72.95062435 112.2809339 71.69365377 116 71 C118.14500713 72.0953598 118.14500713 72.0953598 120 74 C120.70689869 76.62718964 120.70689869 76.62718964 121.00337219 79.85437012 C121.18576447 81.69213013 121.18576447 81.69213013 121.37184143 83.5670166 C121.48822068 84.92941469 121.60425181 86.29184254 121.7199707 87.65429688 C121.85540394 89.08983098 121.99245965 90.5252128 122.13101196 91.96044922 C122.50520942 95.88526817 122.85648215 99.8118514 123.20399117 103.73911095 C123.57842624 107.92533893 123.97402223 112.10956893 124.36723328 116.29406738 C125.11726363 124.31002011 125.84848519 132.32757485 126.57302207 140.34586763 C127.37060902 149.16378564 128.18749312 157.97987134 129.00690484 166.795784 C130.05558447 178.08024094 131.10000851 189.36506837 132.12869263 200.65136719 C132.2072394 201.51303875 132.28578618 202.37471031 132.36671317 203.26249313 C132.44526018 204.12423771 132.52380719 204.98598228 132.60473442 205.87384033 C133.97202123 220.87443275 135.3589978 235.87282419 136.78703511 250.86776638 C137.03815037 253.50627479 137.28853702 256.14485126 137.53864956 258.7834549 C137.66034562 260.06708333 137.66034562 260.06708333 137.78450018 261.37664366 C137.94613998 263.08165016 138.10775885 264.78665865 138.26935619 266.49166918 C138.73436531 271.3926989 139.20424392 276.2932309 139.67775393 281.19344616 C139.96798398 284.20903741 140.25356957 287.22505596 140.53795648 290.24120331 C140.73104464 292.27354416 140.92988905 294.30533563 141.12898064 296.33709717 C141.83913913 303.91805815 142.15994673 311.386391 142 319 C139.61437988 318.67913818 139.61437988 318.67913818 137 318 C135.5433191 315.71859209 134.51195493 313.73019525 133.46875 311.265625 C133.15632355 310.56969742 132.84389709 309.87376984 132.52200317 309.15675354 C131.49679067 306.86198385 130.49864733 304.55643923 129.5 302.25 C128.78613774 300.63942117 128.07045919 299.02964623 127.35302734 297.4206543 C125.9009651 294.15691034 124.45910618 290.88897121 123.02636719 287.61669922 C120.76856522 282.46291712 118.46263971 277.33182673 116.15112305 272.2019043 C114.58254173 268.71820338 113.02286996 265.23062074 111.46484375 261.7421875 C108.90502193 256.01348889 106.33206367 250.29078109 103.75390625 244.5703125 C103.38295837 243.74709 103.0120105 242.92386749 102.62982178 242.07569885 C101.10105718 238.68316057 99.57223132 235.29065027 98.0425415 231.89852905 C93.78284582 222.4507891 89.54541501 212.99407955 85.36328125 203.51171875 C84.99269089 202.67263474 84.62210052 201.83355072 84.24028015 200.96903992 C82.47108967 196.9628862 80.70641597 192.9548649 78.94995117 188.94311523 C78.32099793 187.51667738 77.69185833 186.09032168 77.0625 184.6640625 C76.63877861 183.68894966 76.63877861 183.68894966 76.20649719 182.69413757 C75.02536516 180.0285845 74.08180317 178.08180317 72 176 C67.1850075 176.37243281 62.8478167 178.01649552 58.37109375 179.72265625 C56.90955405 180.26640735 55.44796399 180.81002309 53.98632812 181.35351562 C51.70542256 182.20894747 49.42555162 183.06701423 47.14672852 183.92797852 C44.93237874 184.76231941 42.71450689 185.58669213 40.49609375 186.41015625 C39.81888779 186.66950455 39.14168182 186.92885284 38.44395447 187.19606018 C34.86998468 188.51772172 31.81979032 189.50812336 28 189 C25.42185858 186.42185858 25.44903783 184.82530039 24.88960266 181.24031067 C24.69672511 180.02729877 24.50384756 178.81428686 24.30512524 177.56451702 C24.10065746 176.22250064 23.89650103 174.88043678 23.69262695 173.53833008 C23.47406834 172.13764222 23.25498676 170.73703589 23.03541279 169.33650684 C22.34276084 164.89312477 21.66890686 160.44701171 21 156 C20.89419601 155.29740413 20.78839202 154.59480826 20.67938185 153.87092161 C19.16857919 143.82053512 17.70403077 133.76355504 16.25251937 123.70445609 C15.91210636 121.34610461 15.57104125 118.98784825 15.22979164 116.62961769 C14.03390554 108.36440678 12.84099906 100.09877156 11.65063477 91.83276367 C10.54823743 84.178281 9.43848002 76.52488806 8.32559985 68.87192315 C7.36084014 62.23497325 6.40152709 55.59725035 5.44634038 48.95891601 C4.87968627 45.02157378 4.31084005 41.08458038 3.73628807 37.14838219 C3.19894243 33.46599763 2.66841184 29.78269317 2.14296341 26.09859276 C1.85907229 24.12011012 1.5682438 22.14262672 1.27714539 20.16519165 C0.31826858 13.39017544 -0.26256876 6.84361557 0 0 Z " fill="#FED05A" transform="translate(0,193)"/>
<path d="M0 0 C4.62640153 -0.09901748 9.25218387 -0.17153649 13.87939453 -0.21972656 C15.45274604 -0.2398188 17.02602308 -0.26709799 18.59912109 -0.30175781 C20.86314272 -0.35038494 23.12617573 -0.37299135 25.390625 -0.390625 C26.09181458 -0.41127014 26.79300415 -0.43191528 27.51544189 -0.45318604 C30.94731378 -0.45475611 32.6791217 -0.25257316 35.41308594 1.89941406 C38.09091821 5.44404005 38.4726043 7.54621818 38 12 C36.69074361 14.90633655 34.9864826 17.51974562 33.25 20.1875 C32.75556396 20.97068604 32.26112793 21.75387207 31.75170898 22.56079102 C30.70529642 24.21540311 29.65299512 25.86630387 28.59521484 27.51367188 C27.05630657 29.91223965 25.53478205 32.32080769 24.01953125 34.734375 C21.52879585 38.69919387 19.02468118 42.65533211 16.51611328 46.60888672 C14.00512838 50.56904551 11.50294688 54.534758 9 58.5 C6.03709129 63.19263273 3.0734119 67.88476813 0.10546875 72.57421875 C-5.456717 81.36606074 -10.99050463 90.17503136 -16.5 99 C-24.01991441 111.04520637 -31.59665252 123.05370615 -39.19921875 135.046875 C-41.71947625 139.02335811 -44.22768251 143.00725717 -46.73144531 146.99414062 C-47.83531223 148.73959302 -48.9589344 150.47252099 -50.0859375 152.203125 C-53.98351656 158.10860438 -53.98351656 158.10860438 -54 165 C-51.55584183 168.2532512 -48.63412738 168.96453273 -44.82080078 170.09375 C-44.19639131 170.28154494 -43.57198183 170.46933989 -42.92865086 170.66282558 C-40.8534943 171.28442916 -38.77455121 171.89220415 -36.6953125 172.5 C-35.22914754 172.9361025 -33.76323501 173.37305444 -32.29756165 173.81080627 C-29.18746472 174.73773169 -26.07566539 175.65860684 -22.96237183 176.57473755 C-18.13201546 177.99629796 -13.30611894 179.43259107 -8.48071289 180.87084961 C4.89982684 184.85501411 18.29008378 188.80448386 31.69921875 192.69140625 C34.22775324 193.42824453 36.75612892 194.16562551 39.28448486 194.90307617 C41.50522849 195.54592145 43.72955505 196.17493212 45.95458984 196.80273438 C47.26284551 197.18177365 48.57096232 197.56129266 49.87890625 197.94140625 C50.9572876 198.24763916 52.03566895 198.55387207 53.14672852 198.86938477 C56.9393019 200.37220049 60.13707837 202.27415674 62 206 C62.79685815 210.38271984 62.84456815 212.67906212 60.4140625 216.48046875 C58.47079196 218.85518744 56.47583235 221.16387945 54.41210938 223.43457031 C52.40923521 225.6549073 50.47317413 227.93013968 48.53222656 230.20458984 C46.99536069 232.00543618 45.45086265 233.79954756 43.90625 235.59375 C41.39231343 238.526676 38.93468672 241.50074825 36.5 244.5 C32.11054182 249.90362902 27.58317191 255.18038455 23.04296875 260.45703125 C18.78648075 265.40558716 14.57832994 270.3947854 10.36767578 275.38232422 C8.97540583 277.02908979 7.57994527 278.67310067 6.18359375 280.31640625 C1.95146367 285.30026248 -2.25737398 290.29559272 -6.375 295.375 C-10.54156423 300.49733524 -14.86201281 305.47417378 -19.20043945 310.45043945 C-23.1224954 314.95939957 -26.93031865 319.54698064 -30.69140625 324.19140625 C-33.91929353 328.11839602 -37.24231422 331.96082059 -40.56103516 335.81103516 C-43.5725803 339.31254253 -46.53066209 342.84795521 -49.4375 346.4375 C-53.57996379 351.54227843 -57.88119099 356.49622682 -62.20068359 361.45068359 C-66.12262104 365.95959326 -69.93039115 370.54707017 -73.69140625 375.19140625 C-76.91929353 379.11839602 -80.24231422 382.96082059 -83.56103516 386.81103516 C-86.5725803 390.31254253 -89.53066209 393.84795521 -92.4375 397.4375 C-96.57996379 402.54227843 -100.88119099 407.49622682 -105.20068359 412.45068359 C-109.12501658 416.96234733 -112.93434037 421.55334506 -116.69921875 426.19921875 C-120.37772387 430.67712736 -124.17039656 435.05599295 -127.94921875 439.44921875 C-134.19427321 446.71031003 -140.3963115 454.00553429 -146.4375 461.4375 C-150.8514623 466.85856956 -155.39782805 472.15841974 -159.95703125 477.45703125 C-164.20605644 482.39691097 -168.4070214 487.37721109 -172.61035156 492.35595703 C-174.06889896 494.08151188 -175.53022172 495.8046844 -176.9921875 497.52734375 C-177.48517334 498.10863037 -177.97815918 498.68991699 -178.48608398 499.28881836 C-179.42258573 500.3929295 -180.35956263 501.49663789 -181.29711914 502.59985352 C-183.30858725 504.97296802 -185.24817935 507.34037355 -187.08203125 509.85546875 C-189 512 -189 512 -192.75 512.3125 C-193.8225 512.209375 -194.895 512.10625 -196 512 C-198.21680764 508.04172737 -197.96185399 505.39910731 -196.83018494 501.07299805 C-196.5101223 499.95405151 -196.5101223 499.95405151 -196.18359375 498.8125 C-195.97066177 498.03237549 -195.7577298 497.25225098 -195.53834534 496.44848633 C-195.08436216 494.8023612 -194.62241817 493.1584136 -194.15307617 491.51660156 C-193.44162534 489.01450834 -192.76524192 486.50474079 -192.09179688 483.9921875 C-191.64531526 482.39004219 -191.19681281 480.78845839 -190.74609375 479.1875 C-190.44728554 478.06855347 -190.44728554 478.06855347 -190.1424408 476.92700195 C-188.71594748 472.05713965 -186.90764913 469.41439909 -183 466 C-182.0039951 464.90865576 -181.02015131 463.80595323 -180.0546875 462.6875 C-179.54083496 462.09372559 -179.02698242 461.49995117 -178.49755859 460.88818359 C-177.69439209 459.95353271 -177.69439209 459.95353271 -176.875 459 C-176.3073291 458.34209473 -175.7396582 457.68418945 -175.15478516 457.00634766 C-170.18370251 451.23567171 -165.2585191 445.42677998 -160.3515625 439.6015625 C-158.9668453 437.96071264 -157.57781109 436.32361195 -156.1875 434.6875 C-151.93485876 429.68053611 -147.70552114 424.66102871 -143.5625 419.5625 C-139.1485377 414.14143044 -134.60217195 408.84158026 -130.04296875 403.54296875 C-125.78648075 398.59441284 -121.57832994 393.6052146 -117.36767578 388.61767578 C-115.97540583 386.97091021 -114.57994527 385.32689933 -113.18359375 383.68359375 C-108.95146367 378.69973752 -104.74262602 373.70440728 -100.625 368.625 C-96.45843577 363.50266476 -92.13798719 358.52582622 -87.79956055 353.54956055 C-83.8775046 349.04060043 -80.06968135 344.45301936 -76.30859375 339.80859375 C-73.08070647 335.88160398 -69.75768578 332.03917941 -66.43896484 328.18896484 C-63.4274197 324.68745747 -60.46933791 321.15204479 -57.5625 317.5625 C-53.42003621 312.45772157 -49.11880901 307.50377318 -44.79931641 302.54931641 C-40.87498342 298.03765267 -37.06565963 293.44665494 -33.30078125 288.80078125 C-29.62227613 284.32287264 -25.82960344 279.94400705 -22.05078125 275.55078125 C-15.80572679 268.28968997 -9.6036885 260.99446571 -3.5625 253.5625 C-0.14324461 249.36309365 3.34505948 245.23116546 6.875 241.125 C7.37974854 240.53775146 7.88449707 239.95050293 8.40454102 239.34545898 C9.42718705 238.15603647 10.44989221 236.96666479 11.47265625 235.77734375 C15.6819942 230.8790093 19.86468657 225.96104429 24 221 C24.66644531 220.21496094 25.33289063 219.42992187 26.01953125 218.62109375 C28.46871459 215.59833117 29.86794847 213.6734628 30.625 209.8125 C29.8285081 206.22828644 28.53322554 204.65085459 26 202 C23.13853456 200.62232824 23.13853456 200.62232824 19.6875 199.75 C19.02451904 199.55801025 18.36153809 199.36602051 17.6784668 199.16821289 C16.0934329 198.71099488 14.50602673 198.26196164 12.91699219 197.81884766 C9.44069485 196.84299385 5.97400037 195.83523338 2.5078125 194.82421875 C-1.54125483 193.643608 -5.59051269 192.46391114 -9.64379883 191.29785156 C-16.72937183 189.25796167 -23.79236726 187.15889963 -30.83520508 184.97583008 C-36.21136198 183.31815059 -41.60580497 181.72279531 -47 180.125 C-48.15902832 179.77912842 -49.31805664 179.43325684 -50.51220703 179.0769043 C-56.07242418 177.42455762 -61.63524501 175.81105814 -67.2421875 174.32421875 C-68.67498047 173.9382251 -68.67498047 173.9382251 -70.13671875 173.54443359 C-71.90897193 173.07071613 -73.68490732 172.61048126 -75.46484375 172.16650391 C-80.50742606 170.80849139 -83.83916153 169.42133478 -87 165 C-87.95562215 160.86868229 -86.86760032 158.43809967 -84.796875 154.92578125 C-83.79458349 153.37929718 -82.77801339 151.84200636 -81.75 150.3125 C-80.63639479 148.60437783 -79.52312238 146.89603865 -78.41015625 145.1875 C-77.8392627 144.32125 -77.26836914 143.455 -76.68017578 142.5625 C-74.13263909 138.67715488 -71.66042082 134.74558571 -69.1875 130.8125 C-68.70120117 130.04268799 -68.21490234 129.27287598 -67.71386719 128.47973633 C-63.62066875 122.00015834 -59.55874669 115.50119654 -55.5 109 C-49.51421661 99.41212541 -43.49635422 89.84525477 -37.45166016 80.29443359 C-34.9652647 76.36454047 -32.48282704 72.43214817 -30 68.5 C-27.03701864 63.80741307 -24.07341196 59.11523196 -21.10546875 54.42578125 C-14.6677133 44.24976526 -8.27043424 34.04909687 -1.89916992 23.83129883 C-0.98615112 22.36793091 -0.98615112 22.36793091 -0.0546875 20.875 C0.75766357 19.57175781 0.75766357 19.57175781 1.58642578 18.2421875 C2.69848374 16.47825998 3.84333195 14.73500208 5 13 C5.31478577 11.04785375 5.31478577 11.04785375 5.25 9 C5.25515625 8.319375 5.2603125 7.63875 5.265625 6.9375 C5.09917603 4.67583993 5.09917603 4.67583993 3 2 C2.01 1.34 1.02 0.68 0 0 Z " fill="#FDB441" transform="translate(372,0)"/>
<path d="M0 0 C2 1.3125 2 1.3125 3 2.3125 C3.26452508 4.177339 3.46577642 6.05117352 3.64260864 7.92636108 C3.7600795 9.1487851 3.87755035 10.37120911 3.99858093 11.63067627 C4.12560097 13.00035859 4.25253588 14.37004881 4.37939453 15.73974609 C4.5155822 17.17487166 4.6521631 18.60995995 4.78910828 20.04501343 C5.16339035 23.97924192 5.53206553 27.91397878 5.89980936 31.84882307 C6.29240546 36.03945937 6.69006087 40.2296157 7.08712769 44.41983032 C7.84737432 52.45099011 8.60295973 60.48258166 9.35696495 68.51432955 C10.18627845 77.34577916 11.02088226 86.17672577 11.85593081 95.00763464 C12.92449042 106.30886606 13.99147406 117.61024116 15.05133057 128.91229248 C15.13228572 129.77556963 15.21324088 130.63884677 15.29664922 131.52828383 C15.62334228 135.01245043 15.9499971 138.49662061 16.2765317 141.98080206 C17.35546446 153.49062525 18.44475235 164.99941231 19.54374123 176.50733757 C20.12629779 182.608953 20.70501419 188.71093076 21.28262651 194.81301606 C21.67186322 198.92263428 22.0630712 203.03204276 22.45920181 207.14100266 C22.82606096 210.94643119 23.18765276 214.75232447 23.54534006 218.5586257 C23.73766022 220.59037934 23.93559443 222.6215992 24.13376999 224.65279007 C24.84035362 232.23238374 25.15906346 239.70059 25 247.3125 C22.6242981 247.01345825 22.6242981 247.01345825 20 246.3125 C18.43565202 243.78334914 17.27232504 241.51474254 16.1171875 238.8046875 C15.77624054 238.04584259 15.43529358 237.28699768 15.08401489 236.50515747 C13.99646999 234.07343562 12.93563955 231.6310596 11.875 229.1875 C11.15406293 227.56433949 10.43142503 225.94193328 9.70703125 224.3203125 C8.06963397 220.64288234 6.44453671 216.96065078 4.85005188 213.26438904 C4.0385998 211.40113286 3.19593583 209.55156254 2.35180664 207.70288086 C1.00820049 204.33306713 0.3031075 201.34007114 -0.24609375 197.76171875 C-0.44146729 196.51938477 -0.63684082 195.27705078 -0.83813477 193.99707031 C-1.03813196 192.66474487 -1.23791512 191.33238727 -1.4375 190 C-1.65275245 188.60892359 -1.86882873 187.21797443 -2.08569336 185.82714844 C-2.5242982 183.00387038 -2.95751739 180.17985139 -3.38574219 177.35498047 C-3.93747107 173.71557181 -4.50174147 170.07822642 -5.0703125 166.44140625 C-7.90289458 148.27485598 -10.63351128 130.09068016 -13.1875 111.8828125 C-15.33538597 96.59424908 -17.60306851 81.34899679 -20.18847656 66.12695312 C-23.27121543 47.92364882 -26.03196753 29.67217134 -28 11.3125 C-23.33442264 8.95395047 -18.66063488 6.61355848 -13.97460938 4.29589844 C-12.34580826 3.48472004 -10.72626617 2.65497794 -9.109375 1.8203125 C-3.69952913 -0.84780876 -3.69952913 -0.84780876 0 0 Z " fill="#FDB441" transform="translate(117,264.6875)"/>
<path d="M0 0 C0.34375 2.1640625 0.34375 2.1640625 0 5 C-1.79280299 7.02586738 -3.45200934 8.65137107 -5.5 10.375 C-6.05026855 10.85759277 -6.60053711 11.34018555 -7.16748047 11.83740234 C-8.76799089 13.23743912 -10.38256417 14.61959318 -12 16 C-13.3760877 17.20709448 -14.75127493 18.41521743 -16.125 19.625 C-17.06085938 20.43710937 -17.06085938 20.43710937 -18.015625 21.265625 C-22.05373262 24.79499465 -26.01974189 28.40570631 -30 32 C-39.48872041 40.56860207 -39.48872041 40.56860207 -43.9375 44.4375 C-48.13303221 48.09057956 -52.23373553 51.84505549 -56.34375 55.59375 C-58.54352741 57.58648953 -60.75955218 59.5533814 -63 61.5 C-68.07631734 65.91418899 -73.05945144 70.43458195 -78 75 C-78.62261719 75.48984375 -79.24523437 75.9796875 -79.88671875 76.484375 C-81.22897567 77.99099201 -81.22897567 77.99099201 -80.9609375 80.265625 C-79.71293132 83.8168621 -77.76766425 86.69316479 -75.625 89.75 C-74.71626159 91.07861644 -73.80875724 92.4080776 -72.90234375 93.73828125 C-72.42780762 94.43131348 -71.95327148 95.1243457 -71.46435547 95.83837891 C-68.98268228 99.50172242 -66.58547042 103.21903952 -64.1875 106.9375 C-63.74422363 107.62231445 -63.30094727 108.30712891 -62.84423828 109.01269531 C-61.98727547 110.33946025 -61.13335162 111.66819379 -60.28271484 112.99902344 C-59.38555082 114.39855833 -58.47881116 115.79198005 -57.56494141 117.18066406 C-57.10651855 117.88803711 -56.6480957 118.59541016 -56.17578125 119.32421875 C-55.75852783 119.96061279 -55.34127441 120.59700684 -54.91137695 121.25268555 C-54 123 -54 123 -54 125.875 C-55 128 -55 128 -58 130 C-60.00013606 130.59067999 -62.0220075 131.1088245 -64.05200195 131.58691406 C-65.33158783 131.89148026 -66.61117371 132.19604645 -67.92953491 132.50984192 C-69.36576637 132.84517716 -70.80201586 133.18043513 -72.23828125 133.515625 C-73.77231703 133.87845052 -75.30621809 134.24184601 -76.83999634 134.60575867 C-80.20386713 135.40268553 -83.56861126 136.19578089 -86.93405151 136.98605347 C-92.38722897 138.26667675 -97.83843011 139.55557018 -103.28930664 140.84594727 C-109.32016493 142.27326764 -115.35114768 143.700051 -121.38273621 145.12428284 C-139.22099951 149.33704419 -157.0527486 153.57692333 -174.8828125 157.82421875 C-175.58567029 157.99163999 -176.28852808 158.15906123 -177.01268458 158.33155584 C-183.41039498 159.85550813 -189.80806158 161.37964419 -196.20566463 162.90404701 C-206.00383077 165.23872341 -215.80223086 167.57241534 -225.60083008 169.90527344 C-226.27170639 170.06499653 -226.94258269 170.22471963 -227.63378859 170.38928282 C-230.93520083 171.17528145 -234.23661738 171.96126204 -237.53803635 172.74723244 C-244.77766094 174.47076898 -244.77766094 174.47076898 -252.01713181 176.19495106 C-254.22804991 176.72110007 -256.43920687 177.24624656 -258.65062332 177.77029705 C-263.79779512 178.99120952 -268.93983151 180.22814127 -274.07351685 181.50466919 C-275.03019288 181.73996873 -275.98686892 181.97526827 -276.97253513 182.2176981 C-278.74219549 182.65367606 -280.5103581 183.09580541 -282.27654171 183.54566097 C-286.98922211 184.69991043 -291.14726936 185.21842245 -296 185 C-296 183.68 -296 182.36 -296 181 C-289.97196023 175.12722792 -282.19760415 173.96412413 -274.25 172.1875 C-272.783611 171.84709818 -271.31755215 171.5052714 -269.85180664 171.16210938 C-266.00749812 170.26651907 -262.15903076 169.39051884 -258.30865479 168.52142334 C-254.59386901 167.682417 -250.88104366 166.83482084 -247.16796875 165.98828125 C-245.71143849 165.65635697 -244.25489554 165.32448842 -242.79833984 164.99267578 C-242.07910339 164.82882385 -241.35986694 164.66497192 -240.61883545 164.49615479 C-238.43062252 163.99843569 -236.24193658 163.50283497 -234.05322266 163.00732422 C-224.04444481 160.73488329 -214.07672329 158.3225451 -204.125 155.8125 C-203.45150513 155.64266602 -202.77801025 155.47283203 -202.08410645 155.29785156 C-200.10680663 154.79900854 -198.12956085 154.29995203 -196.15234375 153.80078125 C-184.15870703 150.77297206 -172.12708233 147.92997491 -160.0625 145.19921875 C-157.10406916 144.52907534 -154.14573882 143.85849053 -151.1875 143.1875 C-150.07158981 142.93451645 -150.07158981 142.93451645 -148.93313599 142.67642212 C-136.49338228 139.85103098 -124.10639013 136.84370206 -111.74291992 133.7019043 C-104.65815113 131.90350969 -97.56677539 130.1929727 -90.42724609 128.62426758 C-88.06708981 128.23665309 -88.06708981 128.23665309 -87 127 C-86.54065512 122.74472483 -87.53623978 120.58000579 -89.89453125 117.078125 C-90.51577881 116.14274902 -91.13702637 115.20737305 -91.77709961 114.24365234 C-92.44878174 113.25574707 -93.12046387 112.2678418 -93.8125 111.25 C-94.48869385 110.23244629 -95.1648877 109.21489258 -95.86157227 108.16650391 C-98.48790862 104.21475285 -101.13772197 100.27906926 -103.79003906 96.34472656 C-105.34815521 94.02731605 -106.89336776 91.70173895 -108.4375 89.375 C-109.13613159 88.35647949 -109.13613159 88.35647949 -109.84887695 87.31738281 C-111.5958881 84.68228252 -112.91402413 82.43176202 -113.53515625 79.3125 C-112.79954989 76.13382144 -111.37066378 74.84349279 -109 72.625 C-108.17371094 71.84382813 -107.34742188 71.06265625 -106.49609375 70.2578125 C-103.7175536 67.74451641 -100.9313353 65.24668222 -98.08984375 62.8046875 C-93.9990372 59.27206577 -90.01129268 55.62231885 -86 52 C-76.51127959 43.43139793 -76.51127959 43.43139793 -72.0625 39.5625 C-68.83440488 36.75177475 -65.66261557 33.884201 -62.5 31 C-58.74607537 27.57654466 -54.98356732 24.17227455 -51.1081543 20.88647461 C-48.96341435 19.02485554 -48.96341435 19.02485554 -47.03662109 16.89111328 C-39.60372596 9.26361384 -31.66810646 7.08188001 -21.6875 4.4375 C-20.13667238 3.99920499 -18.58653402 3.55846353 -17.03710938 3.11523438 C-15.55008804 2.69834288 -14.06247603 2.28355129 -12.57421875 1.87109375 C-11.88768723 1.68058945 -11.2011557 1.49008514 -10.49382019 1.29380798 C-6.91621527 0.34891821 -3.70224482 -0.21363393 0 0 Z " fill="#FDB541" transform="translate(512,327)"/>
<path d="M0 0 C2.13671875 -0.01318359 2.13671875 -0.01318359 5 1 C7.2867211 3.50082176 9.01161545 6.34899172 10.8125 9.2109375 C11.37108704 10.07043503 11.92967407 10.92993256 12.50518799 11.81547546 C14.35043399 14.66007919 16.17481706 17.51749052 18 20.375 C19.92977844 23.35997703 21.86520184 26.34123658 23.80133057 29.32209778 C25.14256903 31.3871312 26.48218441 33.45321965 27.82025146 35.52030945 C35.76211136 47.76915576 43.96983534 59.8374184 52.18457031 71.90423584 C53.98517485 74.55018504 55.78181968 77.19878742 57.578125 79.84765625 C58.11528137 80.63315353 58.65243774 81.41865082 59.20587158 82.22795105 C59.69384216 82.94815933 60.18181274 83.66836761 60.68457031 84.41040039 C61.11006165 85.03491592 61.53555298 85.65943146 61.97393799 86.3028717 C63 88 63 88 64 91 C57.78323491 93.66432789 52.18193375 94.20383811 45.5 94.25 C44.75363281 94.270625 44.00726563 94.29125 43.23828125 94.3125 C42.50996094 94.31765625 41.78164063 94.3228125 41.03125 94.328125 C40.37705078 94.3374707 39.72285156 94.34681641 39.04882812 94.35644531 C30.49539101 92.86835926 25.46457701 83.02275337 20.85003662 76.50253296 C20.26014954 75.65607208 19.67026245 74.80961121 19.0625 73.9375 C18.17235199 72.66019516 18.17235199 72.66019516 17.26422119 71.35708618 C2.40789038 49.54901135 -0.58689798 25.95689718 0 0 Z " fill="#FDB441" transform="translate(0,193)"/>
</svg>
